<svg id="visual" viewBox="0 0 960 540" width="960" height="540" xmlns="http://www.w3.org/2000/svg" xmlns:xlink="http://www.w3.org/1999/xlink" version="1.1"><path d="M0 136L87 163L175 125L262 120L349 125L436 120L524 125L611 185L698 131L785 98L873 190L960 104L960 0L873 0L785 0L698 0L611 0L524 0L436 0L349 0L262 0L175 0L87 0L0 0Z" fill="#973aa8"></path><path d="M0 174L87 260L175 222L262 222L349 174L436 158L524 222L611 222L698 212L785 158L873 239L960 190L960 102L873 188L785 96L698 129L611 183L524 123L436 118L349 123L262 118L175 123L87 161L0 134Z" fill="#c34c99"></path><path d="M0 320L87 401L175 406L262 368L349 363L436 417L524 384L611 395L698 422L785 374L873 417L960 336L960 188L873 237L785 156L698 210L611 220L524 220L436 156L349 172L262 220L175 220L87 258L0 172Z" fill="#d55d92"></path><path d="M0 449L87 465L175 465L262 482L349 476L436 503L524 487L611 455L698 465L785 476L873 503L960 471L960 334L873 415L785 372L698 420L611 393L524 382L436 415L349 361L262 366L175 404L87 399L0 318Z" fill="#c34c99"></path><path d="M0 541L87 541L175 541L262 541L349 541L436 541L524 541L611 541L698 541L785 541L873 541L960 541L960 469L873 501L785 474L698 463L611 453L524 485L436 501L349 474L262 480L175 463L87 463L0 447Z" fill="#973aa8"></path></svg>